<svg xmlns="http://www.w3.org/2000/svg" xmlns:xlink="http://www.w3.org/1999/xlink" width="500" zoomAndPan="magnify" viewBox="0 0 375 374.999991" height="500" preserveAspectRatio="xMidYMid meet" version="1.0"><defs><g/><clipPath id="3f72d7f0f2"><path d="M 128.097656 115.304688 L 246.597656 115.304688 L 246.597656 196.304688 L 128.097656 196.304688 Z M 128.097656 115.304688 " clip-rule="nonzero"/></clipPath></defs><g fill="#cb6ce6" fill-opacity="1"><g transform="translate(160.839841, 231.544101)"><g><path d="M 11.765625 0.4375 C 11.367188 0.394531 10.5625 0.3125 9.34375 0.1875 C 8.125 0.0625 7.066406 0 6.171875 0 C 5.359375 0 4.445312 0.046875 3.4375 0.140625 C 2.425781 0.242188 1.773438 0.320312 1.484375 0.375 L 1.703125 -2.109375 C 2.765625 -2.285156 3.476562 -2.59375 3.84375 -3.03125 C 4.21875 -3.476562 4.40625 -4.21875 4.40625 -5.25 L 4.40625 -19.34375 C 4.40625 -20.132812 4.328125 -20.664062 4.171875 -20.9375 C 4.023438 -21.207031 3.71875 -21.34375 3.25 -21.34375 C 2.976562 -21.34375 2.71875 -21.332031 2.46875 -21.3125 C 2.226562 -21.289062 2.070312 -21.28125 2 -21.28125 L 1.8125 -21.609375 L 2.109375 -23.859375 C 2.453125 -23.859375 3.09375 -23.835938 4.03125 -23.796875 C 4.96875 -23.765625 5.878906 -23.75 6.765625 -23.75 C 7.859375 -23.75 8.992188 -23.765625 10.171875 -23.796875 C 11.359375 -23.835938 12.171875 -23.875 12.609375 -23.90625 C 15.078125 -23.90625 17.210938 -23.457031 19.015625 -22.5625 C 20.816406 -21.675781 22.195312 -20.40625 23.15625 -18.75 C 24.125 -17.101562 24.609375 -15.132812 24.609375 -12.84375 C 24.609375 -10.269531 24.054688 -7.972656 22.953125 -5.953125 C 21.859375 -3.929688 20.335938 -2.359375 18.390625 -1.234375 C 16.441406 -0.117188 14.234375 0.4375 11.765625 0.4375 Z M 10.625 -20.796875 C 10.226562 -20.796875 9.953125 -20.734375 9.796875 -20.609375 C 9.648438 -20.484375 9.566406 -20.25 9.546875 -19.90625 C 9.222656 -13.019531 9.0625 -8.171875 9.0625 -5.359375 C 9.0625 -4.617188 9.144531 -4.054688 9.3125 -3.671875 C 9.488281 -3.296875 9.804688 -3.03125 10.265625 -2.875 C 10.722656 -2.726562 11.382812 -2.65625 12.25 -2.65625 C 14.414062 -2.65625 16.070312 -3.421875 17.21875 -4.953125 C 18.363281 -6.484375 18.9375 -8.726562 18.9375 -11.6875 C 18.9375 -14.820312 18.253906 -17.125 16.890625 -18.59375 C 15.523438 -20.0625 13.4375 -20.796875 10.625 -20.796875 Z M 10.625 -20.796875 "/></g></g></g><g fill="#cb6ce6" fill-opacity="1"><g transform="translate(186.515106, 231.544101)"><g><path d="M 1.703125 -2.03125 C 2.765625 -2.226562 3.472656 -2.535156 3.828125 -2.953125 C 4.179688 -3.378906 4.359375 -4.109375 4.359375 -5.140625 L 4.359375 -19.46875 C 4.359375 -20.226562 4.269531 -20.738281 4.09375 -21 C 3.925781 -21.257812 3.570312 -21.390625 3.03125 -21.390625 L 1.921875 -21.34375 L 1.734375 -21.640625 L 2 -23.796875 L 6.40625 -23.75 C 7.363281 -23.75 9.195312 -23.835938 11.90625 -24.015625 L 11.6875 -21.578125 C 11.050781 -21.472656 10.585938 -21.335938 10.296875 -21.171875 C 10.015625 -21.015625 9.816406 -20.773438 9.703125 -20.453125 C 9.597656 -20.140625 9.519531 -19.625 9.46875 -18.90625 L 9.25 -13.578125 L 14.09375 -13.5 C 15.375 -13.5 16.84375 -13.585938 18.5 -13.765625 L 18.5 -19.46875 C 18.5 -20.226562 18.410156 -20.738281 18.234375 -21 C 18.066406 -21.257812 17.710938 -21.390625 17.171875 -21.390625 L 16.015625 -21.34375 L 15.84375 -21.640625 L 16.125 -23.796875 L 20.796875 -23.75 C 21.609375 -23.75 23.394531 -23.835938 26.15625 -24.015625 L 25.96875 -21.609375 C 25.0625 -21.484375 24.460938 -21.289062 24.171875 -21.03125 C 23.890625 -20.769531 23.726562 -20.285156 23.6875 -19.578125 C 23.5625 -17.398438 23.453125 -14.90625 23.359375 -12.09375 C 23.273438 -9.28125 23.234375 -6.925781 23.234375 -5.03125 C 23.234375 -4 23.335938 -3.296875 23.546875 -2.921875 C 23.753906 -2.554688 24.15625 -2.375 24.75 -2.375 C 25.019531 -2.375 25.488281 -2.410156 26.15625 -2.484375 L 26.3125 -2.21875 L 25.96875 0.109375 C 25.625 0.109375 25.367188 0.0976562 25.203125 0.078125 C 23.328125 0.0234375 21.804688 0 20.640625 0 L 15.546875 0.078125 L 15.84375 -2.296875 C 16.550781 -2.316406 17.097656 -2.425781 17.484375 -2.625 C 17.867188 -2.820312 18.132812 -3.160156 18.28125 -3.640625 C 18.425781 -4.117188 18.5 -4.816406 18.5 -5.734375 L 18.5 -10.515625 L 14.4375 -10.546875 C 13.882812 -10.546875 13.140625 -10.507812 12.203125 -10.4375 C 11.265625 -10.363281 10.253906 -10.273438 9.171875 -10.171875 L 9.0625 -4.890625 C 9.0625 -3.867188 9.160156 -3.1875 9.359375 -2.84375 C 9.554688 -2.5 9.941406 -2.328125 10.515625 -2.328125 C 10.753906 -2.328125 11.207031 -2.363281 11.875 -2.4375 L 12.0625 -2.21875 L 11.734375 0.109375 C 9.953125 0.0351562 8.46875 0 7.28125 0 C 6.445312 0 5.421875 0.0351562 4.203125 0.109375 C 2.984375 0.179688 2.0625 0.253906 1.4375 0.328125 Z M 1.703125 -2.03125 "/></g></g></g><g clip-path="url(#3f72d7f0f2)"><path fill="#cb6ce6" d="M 231.859375 192.601562 L 143.136719 192.601562 C 137.863281 192.601562 133.484375 188.765625 132.621094 183.730469 L 242.363281 183.730469 C 241.519531 188.765625 237.132812 192.601562 231.859375 192.601562 Z M 139.351562 121.128906 C 139.351562 119.851562 140.347656 118.839844 141.628906 118.839844 L 233.347656 118.839844 C 234.625 118.839844 235.636719 119.851562 235.636719 121.128906 L 235.636719 180.15625 L 139.351562 180.15625 Z M 244.289062 180.175781 L 239.203125 180.175781 L 239.203125 121.128906 C 239.203125 117.917969 236.59375 115.296875 233.359375 115.296875 L 141.628906 115.296875 C 138.414062 115.296875 135.792969 117.917969 135.792969 121.128906 L 135.792969 180.15625 L 130.707031 180.15625 C 129.722656 180.175781 128.929688 180.964844 128.929688 181.953125 C 128.929688 189.785156 135.304688 196.160156 143.136719 196.160156 L 231.859375 196.160156 C 239.691406 196.160156 246.066406 189.785156 246.066406 181.953125 C 246.066406 180.964844 245.285156 180.175781 244.289062 180.175781 " fill-opacity="1" fill-rule="nonzero"/></g><path fill="#cb6ce6" d="M 225.453125 172.25 L 149.542969 172.25 L 149.542969 126.859375 L 225.445312 126.859375 L 225.445312 172.25 Z M 227.234375 123.3125 L 147.761719 123.3125 C 146.773438 123.3125 145.984375 124.101562 145.984375 125.089844 L 145.984375 174.03125 C 145.984375 175.015625 146.773438 175.808594 147.761719 175.808594 L 227.210938 175.808594 C 228.199219 175.808594 228.992188 175.015625 228.992188 174.03125 L 228.992188 125.089844 C 229.011719 124.101562 228.199219 123.3125 227.234375 123.3125 " fill-opacity="1" fill-rule="nonzero"/><path fill="#cb6ce6" d="M 182.496094 163.652344 C 182.703125 163.722656 182.890625 163.753906 183.089844 163.753906 C 183.816406 163.753906 184.492188 163.296875 184.753906 162.570312 L 193.476562 137.714844 C 193.808594 136.78125 193.3125 135.769531 192.40625 135.449219 C 191.46875 135.117188 190.460938 135.617188 190.128906 136.53125 L 181.402344 161.382812 C 181.09375 162.308594 181.589844 163.320312 182.496094 163.652344 Z M 210.230469 149.925781 L 198.355469 159.335938 C 197.585938 159.9375 197.449219 161.050781 198.0625 161.820312 C 198.40625 162.257812 198.9375 162.496094 199.445312 162.496094 C 199.832031 162.496094 200.214844 162.371094 200.550781 162.113281 L 214.171875 151.328125 C 214.585938 151.007812 214.847656 150.484375 214.847656 149.957031 C 214.847656 149.425781 214.597656 148.914062 214.183594 148.574219 L 199.996094 137 C 199.226562 136.386719 198.117188 136.488281 197.511719 137.257812 C 196.886719 138.027344 197.003906 139.140625 197.761719 139.742188 Z M 174.449219 162.113281 C 174.78125 162.371094 175.164062 162.496094 175.550781 162.496094 C 176.078125 162.496094 176.589844 162.257812 176.933594 161.820312 C 177.546875 161.050781 177.410156 159.9375 176.640625 159.335938 L 164.765625 149.925781 L 177.234375 139.742188 C 177.992188 139.128906 178.109375 138.007812 177.484375 137.257812 C 176.871094 136.488281 175.746094 136.386719 175 137 L 160.8125 148.574219 C 160.398438 148.914062 160.148438 149.40625 160.148438 149.957031 C 160.148438 150.484375 160.410156 151.007812 160.835938 151.328125 L 174.449219 162.113281 " fill-opacity="1" fill-rule="nonzero"/></svg>